<svg viewBox="0 0 800 600" width="100%" height="100%" preserveAspectRatio="xMidYMid meet" xmlns="http://www.w3.org/2000/svg" font-family="Inter, system-ui, sans-serif">
  <g stroke="currentColor" fill="none" stroke-width="3" stroke-linejoin="round" stroke-linecap="round">
    <!-- 1: radiator -->
    <rect x="70" y="150" width="180" height="290" rx="6" />
    <rect x="70" y="150" width="180" height="26" />
    <rect x="70" y="414" width="180" height="26" />
    <path d="M95 176 V414 M120 176 V414 M145 176 V414 M170 176 V414 M195 176 V414 M220 176 V414" stroke-width="1.6" opacity="0.55" />
    <!-- 2: radiator cap -->
    <rect x="140" y="120" width="40" height="30" rx="5" />
    <!-- 3: upper hose -->
    <path d="M250 180 C 320 165, 360 165, 430 178" stroke-width="9" opacity="0.85" />
    <!-- 4: thermostat housing + disc -->
    <rect x="430" y="160" width="74" height="56" rx="8" />
    <circle cx="467" cy="188" r="16" stroke-width="2.5" />
    <!-- 5: water pump -->
    <circle cx="575" cy="320" r="46" />
    <circle cx="575" cy="320" r="16" stroke-width="2.5" />
    <!-- 6: lower hose -->
    <path d="M250 420 C 360 405, 470 380, 535 348" stroke-width="9" opacity="0.85" />
    <!-- 7: cooling fan -->
    <circle cx="160" cy="520" r="58" />
    <g stroke-width="2.5">
      <path d="M160 520 L160 470 M160 520 L203 545 M160 520 L117 545 M160 520 L205 498 M160 520 L115 498" />
    </g>
    <circle cx="160" cy="520" r="10" fill="currentColor" stroke="none" />
    <!-- 8: expansion tank -->
    <rect x="650" y="120" width="92" height="150" rx="14" />
    <path d="M650 240 H742" stroke-width="1.6" opacity="0.6" />
    <rect x="678" y="104" width="36" height="20" rx="4" />
  </g>

  <!-- callout leaders -->
  <g stroke="currentColor" stroke-width="1.6" opacity="0.5">
    <path d="M110 134 L110 150 M160 116 L160 120 M340 134 L340 170 M510 134 L488 160 M634 300 L621 320 M360 456 L360 422 M134 520 L102 520 M706 104 L714 96" />
  </g>

  <!-- numbered callout badges -->
  <g font-size="18" font-weight="800" text-anchor="middle">
    <g fill="#C71530"><circle cx="110" cy="120" r="16"/><circle cx="160" cy="100" r="16"/><circle cx="340" cy="120" r="16"/><circle cx="510" cy="120" r="16"/><circle cx="650" cy="300" r="16"/><circle cx="360" cy="470" r="16"/><circle cx="120" cy="520" r="16"/><circle cx="720" cy="90" r="16"/></g>
    <g fill="#FFFFFF">
      <text x="110" y="126">1</text>
      <text x="160" y="106">2</text>
      <text x="340" y="126">3</text>
      <text x="510" y="126">4</text>
      <text x="650" y="306">5</text>
      <text x="360" y="476">6</text>
      <text x="120" y="526">7</text>
      <text x="720" y="96">8</text>
    </g>
  </g>
</svg>
